<svg width="19" height="11" viewBox="0 0 19 11" fill="none" xmlns="http://www.w3.org/2000/svg">
    <path d="M0.7075 0.0960588L0 0.803808L4.95375 5.75756C5.44742 6.23839 6.03717 6.48198 6.723 6.48831C7.40883 6.49481 7.99858 6.25122 8.49225 5.75756L9.64225 4.60756C9.94475 4.30506 10.3008 4.15698 10.7105 4.16331C11.1202 4.16981 11.4763 4.31789 11.7788 4.60756L17.0943 9.90381H13.8075V10.9038H18.8075V5.90381H17.8075V9.19031L12.4865 3.89431C11.9928 3.41348 11.3998 3.16981 10.7075 3.16331C10.0153 3.15698 9.42883 3.39423 8.948 3.87506L7.773 5.05006C7.47433 5.34873 7.12242 5.49481 6.71725 5.48831C6.31208 5.48198 5.96017 5.33589 5.6615 5.05006L0.7075 0.0960588Z" fill="white"/>
</svg>
