<svg width="19" height="11" viewBox="0 0 19 11" fill="none" xmlns="http://www.w3.org/2000/svg">
    <path d="M0.7075 10.9039L0 10.1962L4.95375 5.24244C5.44742 4.76161 6.03717 4.51802 6.723 4.51169C7.40883 4.50519 7.99858 4.74878 8.49225 5.24244L9.64225 6.39244C9.94475 6.69494 10.3008 6.84302 10.7105 6.83669C11.1202 6.83019 11.4763 6.68211 11.7788 6.39244L17.0943 1.09619H13.8075V0.0961914H18.8075V5.09619H17.8075V1.80969L12.4865 7.10569C11.9928 7.58652 11.3998 7.83019 10.7075 7.83669C10.0153 7.84302 9.42883 7.60577 8.948 7.12494L7.773 5.94994C7.47433 5.65127 7.12242 5.50519 6.71725 5.51169C6.31208 5.51802 5.96017 5.66411 5.6615 5.94994L0.7075 10.9039Z" fill="white"/>
</svg>
