<svg width="26" height="18" viewBox="0 0 26 18" fill="none" xmlns="http://www.w3.org/2000/svg">
<path d="M19.75 9.38478L18.8653 8.50009L21.4831 5.87509L18.8653 3.28134L19.75 2.38946L22.375 5.01446L24.9688 2.38946L25.8606 3.28134L23.2597 5.87509L25.8606 8.50009L24.9688 9.38478L22.375 6.79103L19.75 9.38478ZM9.25 8.23071C8.21875 8.23071 7.33594 7.86353 6.60156 7.12915C5.86719 6.39478 5.5 5.51196 5.5 4.48071C5.5 3.44946 5.86719 2.56665 6.60156 1.83228C7.33594 1.0979 8.21875 0.730713 9.25 0.730713C10.2812 0.730713 11.1641 1.0979 11.8984 1.83228C12.6328 2.56665 13 3.44946 13 4.48071C13 5.51196 12.6328 6.39478 11.8984 7.12915C11.1641 7.86353 10.2812 8.23071 9.25 8.23071ZM0.5 17.2695V15.2116C0.5 14.6956 0.650208 14.2128 0.950625 13.7632C1.25125 13.3138 1.65552 12.9649 2.16344 12.7163C3.34302 12.1507 4.52333 11.7264 5.70437 11.4435C6.88542 11.1608 8.06729 11.0195 9.25 11.0195C10.4327 11.0195 11.6146 11.1608 12.7956 11.4435C13.9767 11.7264 15.157 12.1507 16.3366 12.7163C16.8445 12.9649 17.2488 13.3138 17.5494 13.7632C17.8498 14.2128 18 14.6956 18 15.2116V17.2695H0.5ZM1.75 16.0195H16.75V15.2116C16.75 14.9344 16.6606 14.6739 16.4819 14.4304C16.3033 14.1869 16.0561 13.9809 15.7403 13.8126C14.7116 13.3143 13.6508 12.9325 12.5581 12.6673C11.4654 12.4021 10.3627 12.2695 9.25 12.2695C8.13729 12.2695 7.03458 12.4021 5.94187 12.6673C4.84917 12.9325 3.78844 13.3143 2.75969 13.8126C2.44385 13.9809 2.19667 14.1869 2.01813 14.4304C1.83938 14.6739 1.75 14.9344 1.75 15.2116V16.0195ZM9.25 6.98071C9.9375 6.98071 10.526 6.73592 11.0156 6.24634C11.5052 5.75675 11.75 5.16821 11.75 4.48071C11.75 3.79321 11.5052 3.20467 11.0156 2.71509C10.526 2.2255 9.9375 1.98071 9.25 1.98071C8.5625 1.98071 7.97396 2.2255 7.48438 2.71509C6.99479 3.20467 6.75 3.79321 6.75 4.48071C6.75 5.16821 6.99479 5.75675 7.48438 6.24634C7.97396 6.73592 8.5625 6.98071 9.25 6.98071Z" fill="#5F6368"/>
</svg>
