<svg width="24" height="18" viewBox="0 0 24 18" fill="none" xmlns="http://www.w3.org/2000/svg">
    <path d="M19.4036 9.62503V8.37503H23.442V9.62503H19.4036ZM20.7595 17.7019L17.5286 15.2788L18.3076 14.2885L21.5382 16.7116L20.7595 17.7019ZM18.2114 3.61534L17.4326 2.62503L20.6632 0.201904L21.442 1.19222L18.2114 3.61534ZM3.8748 16.4519V11.6922H2.57668C2.01751 11.6922 1.54116 11.4955 1.14762 11.1022C0.754284 10.7087 0.557617 10.2323 0.557617 9.67315V8.3269C0.557617 7.76774 0.754284 7.29138 1.14762 6.89784C1.54116 6.50451 2.01751 6.30784 2.57668 6.30784H7.24012L12.192 3.37503V14.625L7.24012 11.6922H5.1248V16.4519H3.8748ZM10.942 12.3991V5.60097L7.59105 7.55784H2.57668C2.38439 7.55784 2.20814 7.63794 2.04793 7.79815C1.88772 7.95836 1.80762 8.13461 1.80762 8.3269V9.67315C1.80762 9.86545 1.88772 10.0417 2.04793 10.2019C2.20814 10.3621 2.38439 10.4422 2.57668 10.4422H7.59105L10.942 12.3991ZM14.4036 12.6107V5.3894C14.8219 5.77732 15.1589 6.28659 15.4145 6.91722C15.6701 7.54784 15.7979 8.24211 15.7979 9.00003C15.7979 9.75795 15.6701 10.4522 15.4145 11.0828C15.1589 11.7135 14.8219 12.2227 14.4036 12.6107Z" fill="#5F6368"/>
</svg>
