<svg width="16" height="20" viewBox="0 0 16 20" fill="none" xmlns="http://www.w3.org/2000/svg">
<path d="M0.5 19.375V2.01937C0.5 1.44396 0.692708 0.963542 1.07812 0.578125C1.46354 0.192708 1.94396 0 2.51937 0H13.4806C14.056 0 14.5365 0.192708 14.9219 0.578125C15.3073 0.963542 15.5 1.44396 15.5 2.01937V19.375L8 16.1538L0.5 19.375ZM1.75 17.4375L8 14.75L14.25 17.4375V2.01937C14.25 1.82687 14.1699 1.65052 14.0097 1.49031C13.8495 1.3301 13.6731 1.25 13.4806 1.25H2.51937C2.32687 1.25 2.15052 1.3301 1.99031 1.49031C1.8301 1.65052 1.75 1.82687 1.75 2.01937V17.4375Z" fill="#5F6368"/>
</svg>
