<svg width="24" height="18" viewBox="0 0 24 18" fill="none" xmlns="http://www.w3.org/2000/svg">
<path d="M14.6922 9.57687H19.7884V8.32687H14.6922V9.57687ZM14.6922 6.11531H19.7884V4.86531H14.6922V6.11531ZM4.21156 13.1347H12.4806V12.9278C12.4806 12.1986 12.1145 11.6342 11.3822 11.2344C10.6499 10.8346 9.63792 10.6347 8.34625 10.6347C7.05458 10.6347 6.0425 10.8346 5.31 11.2344C4.57771 11.6342 4.21156 12.1986 4.21156 12.9278V13.1347ZM8.34625 8.61531C8.87333 8.61531 9.3176 8.43469 9.67906 8.07344C10.0405 7.71198 10.2212 7.2676 10.2212 6.74031C10.2212 6.21302 10.0405 5.76875 9.67906 5.4075C9.3176 5.04604 8.87333 4.86531 8.34625 4.86531C7.81896 4.86531 7.37458 5.04604 7.01313 5.4075C6.65188 5.76875 6.47125 6.21302 6.47125 6.74031C6.47125 7.2676 6.65188 7.71198 7.01313 8.07344C7.37458 8.43469 7.81896 8.61531 8.34625 8.61531ZM2.76937 17.75C2.19396 17.75 1.71354 17.5573 1.32812 17.1719C0.942708 16.7865 0.75 16.306 0.75 15.7306V2.26937C0.75 1.69396 0.942708 1.21354 1.32812 0.828125C1.71354 0.442708 2.19396 0.25 2.76937 0.25H21.2306C21.806 0.25 22.2865 0.442708 22.6719 0.828125C23.0573 1.21354 23.25 1.69396 23.25 2.26937V15.7306C23.25 16.306 23.0573 16.7865 22.6719 17.1719C22.2865 17.5573 21.806 17.75 21.2306 17.75H2.76937ZM2.76937 16.5H21.2306C21.4231 16.5 21.5995 16.4199 21.7597 16.2597C21.9199 16.0995 22 15.9231 22 15.7306V2.26937C22 2.07687 21.9199 1.90052 21.7597 1.74031C21.5995 1.5801 21.4231 1.5 21.2306 1.5H2.76937C2.57687 1.5 2.40052 1.5801 2.24031 1.74031C2.0801 1.90052 2 2.07687 2 2.26937V15.7306C2 15.9231 2.0801 16.0995 2.24031 16.2597C2.40052 16.4199 2.57687 16.5 2.76937 16.5Z" fill="#5F6368"/>
</svg>
