<svg width="22" height="24" viewBox="0 0 22 24" fill="none" xmlns="http://www.w3.org/2000/svg">
    <path d="M0.0380859 9.28375C0.0380859 7.68104 0.357357 6.19021 0.995899 4.81125C1.63465 3.43229 2.50288 2.24198 3.60059 1.24031L4.44434 2.15875C3.46684 3.04333 2.69642 4.09542 2.13309 5.315C1.56975 6.53458 1.28809 7.8575 1.28809 9.28375H0.0380859ZM20.7112 9.28375C20.7112 7.8575 20.4295 6.53052 19.8662 5.30281C19.3029 4.07531 18.5325 3.01927 17.555 2.13469L18.3987 1.24031C19.4964 2.24198 20.3646 3.43229 21.0034 4.81125C21.6419 6.19021 21.9612 7.68104 21.9612 9.28375H20.7112ZM2.24965 20.4616V19.2116H4.26902V9.30781C4.26902 7.67469 4.78579 6.23833 5.81934 4.99875C6.85309 3.75917 8.16319 2.98719 9.74965 2.68281V2C9.74965 1.65542 9.87184 1.36094 10.1162 1.11656C10.3606 0.872187 10.6551 0.75 10.9996 0.75C11.3442 0.75 11.6387 0.872187 11.8831 1.11656C12.1275 1.36094 12.2496 1.65542 12.2496 2V2.68281C13.8361 2.98719 15.1462 3.75917 16.18 4.99875C17.2135 6.23833 17.7303 7.67469 17.7303 9.30781V19.2116H19.7496V20.4616H2.24965ZM10.9996 23.7306C10.4403 23.7306 9.96392 23.534 9.57059 23.1406C9.17704 22.7473 8.98027 22.2709 8.98027 21.7116H13.019C13.019 22.2709 12.8223 22.7473 12.4287 23.1406C12.0354 23.534 11.559 23.7306 10.9996 23.7306ZM5.51902 19.2116H16.4803V9.30781C16.4803 7.78844 15.9466 6.4951 14.8793 5.42781C13.812 4.36052 12.5188 3.82688 10.9996 3.82688C9.48048 3.82688 8.18725 4.36052 7.11996 5.42781C6.05267 6.4951 5.51902 7.78844 5.51902 9.30781V19.2116Z" fill="#5F6368"/>
</svg>
