<svg width="21" height="18" viewBox="0 0 21 18" fill="none" xmlns="http://www.w3.org/2000/svg">
    <path d="M0.25 11.5V10.25H9V11.5H0.25ZM0.25 6.5V5.25H14V6.5H0.25ZM0.25 1.5V0.25H14V1.5H0.25ZM10.5384 17.75V14.9881L17.2044 8.35344C17.3277 8.2299 17.455 8.14656 17.5863 8.10344C17.7175 8.0601 17.8487 8.03844 17.98 8.03844C18.1231 8.03844 18.2638 8.06531 18.4019 8.11906C18.5402 8.1726 18.6658 8.25313 18.7787 8.36063L19.935 9.54094C20.0377 9.66427 20.1158 9.7925 20.1694 9.92562C20.2231 10.0585 20.25 10.1915 20.25 10.3244C20.25 10.4575 20.2244 10.5918 20.1731 10.7272C20.1219 10.8626 20.0425 10.992 19.935 11.1153L13.3006 17.75H10.5384ZM11.6444 16.6444H12.8319L17.1659 12.3028L16.5794 11.7091L16.0097 11.0984L11.6444 15.4569V16.6444ZM16.5794 11.7091L16.0097 11.0984L17.1659 12.3028L16.5794 11.7091Z" fill="#5F6368"/>
</svg>
