<svg width="18" height="18" viewBox="0 0 18 18" fill="none" xmlns="http://www.w3.org/2000/svg">
    <path d="M2.30775 17.5C1.80258 17.5 1.375 17.325 1.025 16.975C0.675 16.625 0.5 16.1974 0.5 15.6923V2.30775C0.5 1.80258 0.675 1.375 1.025 1.025C1.375 0.675 1.80258 0.5 2.30775 0.5H9.80775V2H2.30775C2.21792 2 2.14417 2.02883 2.0865 2.0865C2.02883 2.14417 2 2.21792 2 2.30775V15.6923C2 15.7821 2.02883 15.8558 2.0865 15.9135C2.14417 15.9712 2.21792 16 2.30775 16H15.6923C15.7821 16 15.8558 15.9712 15.9135 15.9135C15.9712 15.8558 16 15.7821 16 15.6923V8.19225H17.5V15.6923C17.5 16.1974 17.325 16.625 16.975 16.975C16.625 17.325 16.1974 17.5 15.6923 17.5H2.30775ZM3.38475 13.6923H14.6152L11.125 9.0385L8.125 12.9327L6 10.2308L3.38475 13.6923ZM14 6V4H12V2.5H14V0.5H15.5V2.5H17.5V4H15.5V6H14Z" fill="#7A7A7A"/>
</svg>
