<svg width="20" height="20" viewBox="0 0 21 20" fill="none" xmlns="http://www.w3.org/2000/svg">
<path d="M7.41239 20L5.68435 16.9514L2.40307 16.1988L2.72335 12.6629L0.5 10L2.72335 7.33712L2.40307 3.80122L5.68435 3.04858L7.41239 0L10.5 1.37224L13.5876 0L15.3156 3.04858L18.5969 3.80122L18.2766 7.33712L20.5 10L18.2766 12.6629L18.5969 16.1988L15.3156 16.9514L13.5876 20L10.5 18.6278L7.41239 20ZM8.03068 18.0586L10.5 16.9631L12.9991 18.0586L14.3734 15.6258L17.0364 14.9864L16.7943 12.1287L18.5858 10L16.7943 7.84015L17.0364 4.98239L14.3734 4.37419L12.9693 1.94141L10.5 3.03692L8.00091 1.94141L6.62656 4.37419L3.96358 4.98239L4.20567 7.84015L2.4142 10L4.20567 12.1287L3.96358 15.0176L6.62656 15.6258L8.03068 18.0586ZM9.48322 13.2475L14.6192 7.87132L13.5987 6.772L9.48322 11.0801L7.40125 8.93186L6.38084 10L9.48322 13.2475Z" fill="#3E68FF"/>
</svg>
