<svg width="13" height="14" viewBox="0 0 13 14" fill="none" xmlns="http://www.w3.org/2000/svg">
<path d="M2.90625 8.23975H7.59375V7.17725H2.90625V8.23975ZM2.90625 6.11475H10.0938V5.05225H2.90625V6.11475ZM2.90625 3.98975H10.0938V2.92725H2.90625V3.98975ZM0.5625 13.4024V1.55149C0.5625 1.19366 0.671875 0.890788 0.890625 0.642871C1.10938 0.394954 1.37661 0.270996 1.69234 0.270996H11.3077C11.6234 0.270996 11.8906 0.394954 12.1094 0.642871C12.3281 0.890788 12.4375 1.19366 12.4375 1.55149V9.61551C12.4375 9.97333 12.3281 10.2762 12.1094 10.5241C11.8906 10.772 11.6234 10.896 11.3077 10.896H2.77406L0.5625 13.4024ZM2.375 9.8335H11.3077C11.3558 9.8335 11.3998 9.81077 11.4398 9.76532C11.4799 9.71999 11.5 9.67005 11.5 9.61551V1.55149C11.5 1.49694 11.4799 1.44701 11.4398 1.40167C11.3998 1.35622 11.3558 1.3335 11.3077 1.3335H1.69234C1.64422 1.3335 1.60016 1.35622 1.56016 1.40167C1.52005 1.44701 1.5 1.49694 1.5 1.55149V10.8144L2.375 9.8335Z" fill="#3E68FF"/>
</svg>
