<svg width="20" height="48" viewBox="0 0 20 48" fill="none" xmlns="http://www.w3.org/2000/svg">
<path d="M0 24V2.44068C0 1.73559 0.248538 1.15254 0.745614 0.691525C1.24269 0.230509 1.87134 0 2.63158 0H17.3684C18.1287 0 18.7573 0.230509 19.2544 0.691525C19.7515 1.15254 20 1.73559 20 2.44068V24L10 20.0136L0 24ZM1.22807 22.2102L10 18.7119L18.7719 22.2102L16.2802 21.2164C15.7127 20.9901 14.2488 20.5609 13.9564 20.2897C11.9387 19.485 11.9387 19.485 10 18.7119L7.39889 19.7492C6.89447 20.0136 5.38119 20.7498 4.88997 20.7498C4.59758 21.021 3.46143 21.4824 3.05305 21.4824L1.22807 22.2102Z" fill="#3E68FF"/>
</svg>


