<svg width="24" height="24" viewBox="0 0 20 24" fill="none" xmlns="http://www.w3.org/2000/svg">
<path d="M0.956055 23.9775V2.43138C0.956055 1.72672 1.20241 1.14403 1.69513 0.683291C2.18784 0.222555 2.81098 -0.0078125 3.56455 -0.0078125H18.1721C18.9257 -0.0078125 19.5488 0.222555 20.0415 0.683291C20.5342 1.14403 20.7806 1.72672 20.7806 2.43138V23.9775L10.8683 19.9935L5.91219 21.9855L0.956055 23.9775ZM2.17335 22.1888L10.8683 18.6926L19.5633 22.1888V2.43138C19.5633 2.10615 19.4184 1.80803 19.1286 1.53701C18.8387 1.26599 18.5199 1.13048 18.1721 1.13048H3.56455C3.21675 1.13048 2.89793 1.26599 2.6081 1.53701C2.31827 1.80803 2.17335 2.10615 2.17335 2.43138V22.1888Z" fill="#8E8E8E"/>
</svg>
