<svg width="23" height="21" viewBox="0 0 23 21" fill="none" xmlns="http://www.w3.org/2000/svg">
<path d="M11.5026 0.265568C11.5924 -0.0108255 11.9834 -0.0108267 12.0732 0.265566L14.44 7.54974C14.4801 7.67335 14.5953 7.75704 14.7253 7.75704H22.3843C22.6749 7.75704 22.7958 8.12892 22.5607 8.29975L16.3644 12.8016C16.2592 12.878 16.2152 13.0134 16.2554 13.137L18.6222 20.4212C18.712 20.6976 18.3956 20.9274 18.1605 20.7566L11.9642 16.2547C11.8591 16.1784 11.7167 16.1784 11.6115 16.2547L5.41525 20.7566C5.18013 20.9274 4.86379 20.6976 4.9536 20.4212L7.32037 13.137C7.36053 13.0134 7.31653 12.878 7.21139 12.8016L1.0151 8.29975C0.779981 8.12893 0.900813 7.75704 1.19143 7.75704H8.85047C8.98044 7.75704 9.09562 7.67335 9.13579 7.54975L11.5026 0.265568Z" fill="#D9D9D9"/>
</svg>
