<svg width="25" height="24" viewBox="0 0 25 24" fill="none" xmlns="http://www.w3.org/2000/svg">
<path d="M3.05212 24C2.33894 24 1.73529 23.7529 1.24118 23.2588C0.747059 22.7647 0.5 22.1611 0.5 21.4479V2.55212C0.5 1.83894 0.747059 1.23529 1.24118 0.741176C1.73529 0.247059 2.33894 0 3.05212 0H21.9479C22.6611 0 23.2647 0.247059 23.7588 0.741176C24.2529 1.23529 24.5 1.83894 24.5 2.55212V21.4479C24.5 22.1611 24.2529 22.7647 23.7588 23.2588C23.2647 23.7529 22.6611 24 21.9479 24H3.05212ZM3.05212 21.8824H21.9479C22.0566 21.8824 22.1561 21.8371 22.2465 21.7465C22.3371 21.6561 22.3824 21.5566 22.3824 21.4479V2.55212C22.3824 2.44341 22.3371 2.34388 22.2465 2.25353C22.1561 2.16294 22.0566 2.11765 21.9479 2.11765H3.05212C2.94341 2.11765 2.84388 2.16294 2.75353 2.25353C2.66294 2.34388 2.61765 2.44341 2.61765 2.55212V21.4479C2.61765 21.5566 2.66294 21.6561 2.75353 21.7465C2.84388 21.8371 2.94341 21.8824 3.05212 21.8824ZM5.08824 18.7059H20.0201L15.3779 12.516L11.414 17.6742L8.59047 14.0633L5.08824 18.7059Z" fill="#5F6368"/>
</svg>
