<svg width="15" height="15" viewBox="0 0 15 15" fill="none" xmlns="http://www.w3.org/2000/svg">
<path d="M0.833333 15V12.0221L11.8285 0.393749C11.9578 0.256838 12.0999 0.156986 12.2548 0.0941916C12.4098 0.0313975 12.5647 0 12.7196 0C12.8831 0 13.0415 0.0313975 13.1948 0.0941916C13.348 0.156986 13.4823 0.256838 13.5977 0.393749L14.6281 1.48478C14.7574 1.60699 14.8517 1.74919 14.911 1.9114C14.9703 2.07375 15 2.24147 15 2.41456C15 2.57853 14.9703 2.74257 14.911 2.90669C14.8517 3.07066 14.7574 3.2211 14.6281 3.35801L3.64583 15H0.833333ZM2.08333 13.6765H3.11375L11.6058 4.69853L11.0946 4.13515L10.5625 3.59382L2.08333 12.5854V13.6765ZM11.0946 4.13515L10.5625 3.59382L11.6058 4.69853L11.0946 4.13515ZM8.86229 15C9.8366 15 10.7399 14.7477 11.5721 14.2432C12.4043 13.7386 12.8204 13.035 12.8204 12.1324C12.8204 11.6143 12.6738 11.1612 12.3806 10.7731C12.0873 10.3851 11.6757 10.0571 11.1458 9.78904L10.2131 10.7766C10.6394 10.9463 10.9722 11.1462 11.2115 11.3764C11.4509 11.6065 11.5706 11.8585 11.5706 12.1324C11.5706 12.5497 11.2998 12.9114 10.7581 13.2174C10.2165 13.5235 9.58451 13.6765 8.86229 13.6765C8.68493 13.6765 8.53639 13.7399 8.41667 13.8666C8.29708 13.9932 8.23729 14.1504 8.23729 14.3382C8.23729 14.526 8.29708 14.6832 8.41667 14.8099C8.53639 14.9366 8.68493 15 8.86229 15ZM1.32854 8.7675L2.25812 7.77485C1.93215 7.62897 1.68264 7.47794 1.50958 7.32176C1.33653 7.16574 1.25 7.00456 1.25 6.83824C1.25 6.61647 1.38972 6.39757 1.66917 6.18154C1.94847 5.96551 2.50424 5.66802 3.33646 5.28904C4.49465 4.76419 5.26979 4.28934 5.66187 3.86449C6.05396 3.43978 6.25 2.96044 6.25 2.42647C6.25 1.7025 5.96181 1.11713 5.38542 0.670368C4.80903 0.223456 4.05556 0 3.125 0C2.55347 0 2.02785 0.109191 1.54812 0.327573C1.0684 0.545808 0.709931 0.812793 0.472708 1.12853C0.357431 1.27441 0.309653 1.43529 0.329375 1.61118C0.349097 1.78706 0.427917 1.93154 0.565833 2.04463C0.703611 2.16125 0.854236 2.20904 1.01771 2.18801C1.18118 2.16713 1.32056 2.09559 1.43583 1.97338C1.64639 1.75059 1.8884 1.58654 2.16188 1.48125C2.43535 1.3761 2.75639 1.32353 3.125 1.32353C3.73722 1.32353 4.20278 1.43294 4.52167 1.65176C4.84056 1.87074 5 2.12897 5 2.42647C5 2.68324 4.86243 2.91603 4.58729 3.12485C4.31229 3.33353 3.72924 3.6511 2.83813 4.07757C1.76438 4.57522 1.02292 5.02088 0.61375 5.41456C0.204583 5.80824 0 6.28279 0 6.83824C0 7.25221 0.116736 7.61618 0.350208 7.93015C0.583681 8.24412 0.909792 8.52324 1.32854 8.7675Z" fill="white"/>
</svg>
