<svg width="20" height="20" viewBox="0 0 20 20" fill="none" xmlns="http://www.w3.org/2000/svg">
<path d="M18.7741 20L11.4675 12.6932C10.8859 13.1735 10.217 13.5493 9.46079 13.8208C8.70463 14.0922 7.92239 14.2279 7.11406 14.2279C5.12574 14.2279 3.44298 13.5395 2.06579 12.1627C0.688595 10.786 0 9.10362 0 7.11571C0 5.12799 0.688401 3.44506 2.0652 2.06692C3.44201 0.688973 5.12438 0 7.11232 0C9.10007 0 10.783 0.688585 12.1612 2.06576C13.5391 3.44293 14.2281 5.12566 14.2281 7.11396C14.2281 7.94476 14.0887 8.73824 13.8099 9.49439C13.5309 10.2505 13.1587 10.9082 12.6934 11.4674L20 18.7739L18.7741 20ZM7.11406 12.4832C8.61302 12.4832 9.8826 11.963 10.9228 10.9227C11.9632 9.88246 12.4834 8.61289 12.4834 7.11396C12.4834 5.61503 11.9632 4.34546 10.9228 3.30527C9.8826 2.26488 8.61302 1.74468 7.11406 1.74468C5.61511 1.74468 4.34553 2.26488 3.30532 3.30527C2.26491 4.34546 1.74471 5.61503 1.74471 7.11396C1.74471 8.61289 2.26491 9.88246 3.30532 10.9227C4.34553 11.963 5.61511 12.4832 7.11406 12.4832Z" fill="#5F6368"/>
</svg>
