<svg width="23" height="21" viewBox="0 0 23 21" fill="none" xmlns="http://www.w3.org/2000/svg">
<path d="M11.0524 0.265568C11.1422 -0.0108255 11.5332 -0.0108267 11.623 0.265566L13.9898 7.54974C14.0299 7.67335 14.1451 7.75704 14.2751 7.75704H21.9341C22.2247 7.75704 22.3456 8.12892 22.1105 8.29975L15.9142 12.8016C15.809 12.878 15.765 13.0134 15.8052 13.137L18.172 20.4212C18.2618 20.6976 17.9454 20.9274 17.7103 20.7566L11.514 16.2547C11.4089 16.1784 11.2665 16.1784 11.1613 16.2547L4.96505 20.7566C4.72994 20.9274 4.41359 20.6976 4.5034 20.4212L6.87017 13.137C6.91034 13.0134 6.86634 12.878 6.76119 12.8016L0.5649 8.29975C0.329786 8.12893 0.450617 7.75704 0.741234 7.75704H8.40027C8.53024 7.75704 8.64543 7.67335 8.68559 7.54975L11.0524 0.265568Z" fill="#FFC72D"/>
</svg>
