<svg width="25" height="24" viewBox="0 0 25 24" fill="none" xmlns="http://www.w3.org/2000/svg">
<path d="M18.2308 20.5H7.7115V8.49999L14.3462 1.90399L15.1923 2.74999C15.2961 2.85383 15.3823 2.99133 15.451 3.16249C15.5195 3.33366 15.5538 3.49491 15.5538 3.64624V3.89999L14.4923 8.49999H21.1923C21.6679 8.49999 22.0881 8.68241 22.4527 9.04724C22.8176 9.41191 23 9.83208 23 10.3077V11.923C23 12.0268 22.9865 12.139 22.9595 12.2595C22.9327 12.38 22.9026 12.4922 22.8693 12.5962L20.0038 19.3577C19.8603 19.6782 19.6199 19.9487 19.2828 20.1692C18.9456 20.3897 18.5949 20.5 18.2308 20.5ZM9.2115 19H18.2308C18.3012 19 18.3733 18.9807 18.447 18.9422C18.5208 18.9037 18.577 18.8397 18.6155 18.75L21.5 12V10.3077C21.5 10.2179 21.4712 10.1442 21.4135 10.0865C21.3558 10.0288 21.2821 9.99999 21.1923 9.99999H12.5963L13.85 4.51924L9.2115 9.13849V19ZM7.7115 8.49999V9.99999H4.5V19H7.7115V20.5H3V8.49999H7.7115Z" fill="#959595"/>
</svg>
