<svg width="24" height="25" viewBox="0 0 24 25" fill="none" xmlns="http://www.w3.org/2000/svg">
<path d="M24 24.5L19.7142 19.9716H6.42865C5.83948 19.9716 5.33504 19.7499 4.91533 19.3064C4.49562 18.8632 4.28576 18.3302 4.28576 17.7074V17.3678H19.2856C19.9042 17.3678 20.434 17.135 20.8748 16.6695C21.3154 16.2039 21.5357 15.6443 21.5357 14.9907V4.91508H21.8571C22.4463 4.91508 22.9507 5.13681 23.3704 5.58028C23.7901 6.02351 24 6.55651 24 7.17928V24.5ZM1.39284 15.3895L3.69938 12.9527H16.4999C16.7499 12.9527 16.9553 12.8679 17.1159 12.6981C17.2768 12.5284 17.3572 12.3114 17.3572 12.0473V2.87752C17.3572 2.61335 17.2768 2.39628 17.1159 2.2263C16.9553 2.05656 16.7499 1.97169 16.4999 1.97169H2.25013C2.00012 1.97169 1.79479 2.05656 1.63415 2.2263C1.47327 2.39628 1.39284 2.61335 1.39284 2.87752V15.3895ZM0 18.9528V2.87752C0 2.2236 0.220416 1.66386 0.66125 1.19832C1.10185 0.732772 1.63148 0.5 2.25013 0.5H16.4999C17.1186 0.5 17.6483 0.732772 18.0891 1.19832C18.5297 1.66386 18.75 2.2236 18.75 2.87752V12.0473C18.75 12.7009 18.5297 13.2606 18.0891 13.7261C17.6483 14.1917 17.1186 14.4244 16.4999 14.4244H4.28576L0 18.9528Z" fill="#7A7A7A"/>
</svg>
