<svg width="24" height="24" viewBox="0 0 24 24" fill="none" xmlns="http://www.w3.org/2000/svg">
<path d="M22.75 23.0001C22.75 23.3316 22.6183 23.6496 22.3839 23.884C22.1495 24.1184 21.8315 24.2501 21.5 24.2501H1.5C1.16848 24.2501 0.850537 24.1184 0.616117 23.884C0.381696 23.6496 0.25 23.3316 0.25 23.0001V9.86259C0.249868 9.67211 0.293271 9.48412 0.376895 9.31297C0.460519 9.14182 0.58215 8.99205 0.7325 8.87509L10.7325 1.0976C10.9519 0.926903 11.222 0.834229 11.5 0.834229C11.778 0.834229 12.0481 0.926903 12.2675 1.0976L22.2675 8.87509C22.4179 8.99205 22.5395 9.14182 22.6231 9.31297C22.7067 9.48412 22.7501 9.67211 22.75 9.86259V23.0001ZM5.25 16.7501V19.2501H17.75V16.7501H5.25Z" fill="white"/>
</svg>
