<svg width="21" height="24" viewBox="0 0 21 24" fill="none" xmlns="http://www.w3.org/2000/svg">
<path d="M0.587891 23.9927V2.44651C0.587891 1.74186 0.834248 1.15916 1.32696 0.698428C1.81968 0.237692 2.44282 0.00732422 3.19638 0.00732422H17.8039C18.5575 0.00732422 19.1807 0.237692 19.6734 0.698428C20.1661 1.15916 20.4124 1.74186 20.4124 2.44651V23.9927L10.5002 20.0087L5.54403 22.0007L0.587891 23.9927ZM1.80519 22.2039L10.5002 18.7078L19.1951 22.2039V2.44651C19.1951 2.12129 19.0502 1.82316 18.7604 1.55214C18.4706 1.28112 18.1517 1.14561 17.8039 1.14561H3.19638C2.84858 1.14561 2.52977 1.28112 2.23994 1.55214C1.9501 1.82316 1.80519 2.12129 1.80519 2.44651V22.2039Z" fill="#7A7A7A"/>
</svg>
