<svg width="25" height="24" viewBox="0 0 25 24" fill="none" xmlns="http://www.w3.org/2000/svg">
<path d="M4.76167 19.3127C5.895 18.4973 7.09756 17.8526 8.36933 17.3783C9.64111 16.9039 11.018 16.6667 12.5 16.6667C13.982 16.6667 15.3589 16.9039 16.6307 17.3783C17.9024 17.8526 19.105 18.4973 20.2383 19.3127C21.1188 18.4016 21.8269 17.3256 22.3627 16.0847C22.8987 14.8436 23.1667 13.482 23.1667 12C23.1667 9.04445 22.1278 6.52778 20.05 4.45C17.9722 2.37222 15.4556 1.33333 12.5 1.33333C9.54445 1.33333 7.02778 2.37222 4.95 4.45C2.87222 6.52778 1.83333 9.04445 1.83333 12C1.83333 13.482 2.10133 14.8436 2.63733 16.0847C3.17311 17.3256 3.88122 18.4016 4.76167 19.3127ZM12.5007 12.6667C11.3771 12.6667 10.4294 12.281 9.65767 11.5097C8.88589 10.7383 8.5 9.79089 8.5 8.66733C8.5 7.54378 8.88567 6.59611 9.657 5.82433C10.4283 5.05256 11.3758 4.66667 12.4993 4.66667C13.6229 4.66667 14.5706 5.05233 15.3423 5.82367C16.1141 6.595 16.5 7.54244 16.5 8.666C16.5 9.78956 16.1143 10.7372 15.343 11.509C14.5717 12.2808 13.6242 12.6667 12.5007 12.6667ZM12.5 24C10.8264 24 9.25978 23.6884 7.8 23.0653C6.34022 22.4422 5.07011 21.5906 3.98967 20.5103C2.90944 19.4299 2.05778 18.1598 1.43467 16.7C0.811555 15.2402 0.5 13.6736 0.5 12C0.5 10.3264 0.811555 8.75978 1.43467 7.3C2.05778 5.84022 2.90944 4.57011 3.98967 3.48967C5.07011 2.40944 6.34022 1.55778 7.8 0.934666C9.25978 0.311555 10.8264 0 12.5 0C14.1736 0 15.7402 0.311555 17.2 0.934666C18.6598 1.55778 19.9299 2.40944 21.0103 3.48967C22.0906 4.57011 22.9422 5.84022 23.5653 7.3C24.1884 8.75978 24.5 10.3264 24.5 12C24.5 13.6736 24.1884 15.2402 23.5653 16.7C22.9422 18.1598 22.0906 19.4299 21.0103 20.5103C19.9299 21.5906 18.6598 22.4422 17.2 23.0653C15.7402 23.6884 14.1736 24 12.5 24ZM12.5 22.6667C13.7291 22.6667 14.9386 22.4517 16.1283 22.0217C17.3179 21.5919 18.346 21.0034 19.2127 20.2563C18.346 19.5606 17.3434 19.0106 16.205 18.6063C15.0666 18.2021 13.8316 18 12.5 18C11.1684 18 9.92911 18.1979 8.782 18.5937C7.63511 18.9894 6.63689 19.5437 5.78733 20.2563C6.654 21.0034 7.68211 21.5919 8.87167 22.0217C10.0614 22.4517 11.2709 22.6667 12.5 22.6667ZM12.5 11.3333C13.2487 11.3333 13.8803 11.0761 14.395 10.5617C14.9094 10.047 15.1667 9.41533 15.1667 8.66667C15.1667 7.918 14.9094 7.28633 14.395 6.77167C13.8803 6.25722 13.2487 6 12.5 6C11.7513 6 11.1197 6.25722 10.605 6.77167C10.0906 7.28633 9.83333 7.918 9.83333 8.66667C9.83333 9.41533 10.0906 10.047 10.605 10.5617C11.1197 11.0761 11.7513 11.3333 12.5 11.3333Z" fill="#7A7A7A"/>
</svg>
