<svg width="13" height="14" viewBox="0 0 13 14" fill="none" xmlns="http://www.w3.org/2000/svg">
    <path d="M2.90625 8.40303H7.59375V7.34053H2.90625V8.40303ZM2.90625 6.27803H10.0938V5.21553H2.90625V6.27803ZM2.90625 4.15303H10.0938V3.09053H2.90625V4.15303ZM0.5625 13.5657V1.71477C0.5625 1.35694 0.671875 1.05407 0.890625 0.806155C1.10938 0.558239 1.37661 0.43428 1.69234 0.43428H11.3077C11.6234 0.43428 11.8906 0.558239 12.1094 0.806155C12.3281 1.05407 12.4375 1.35694 12.4375 1.71477V9.77879C12.4375 10.1366 12.3281 10.4395 12.1094 10.6874C11.8906 10.9353 11.6234 11.0593 11.3077 11.0593H2.77406L0.5625 13.5657ZM2.375 9.99678H11.3077C11.3558 9.99678 11.3998 9.97406 11.4398 9.9286C11.4799 9.88327 11.5 9.83333 11.5 9.77879V1.71477C11.5 1.66023 11.4799 1.61029 11.4398 1.56496C11.3998 1.51951 11.3558 1.49678 11.3077 1.49678H1.69234C1.64422 1.49678 1.60016 1.51951 1.56016 1.56496C1.52005 1.61029 1.5 1.66023 1.5 1.71477V10.9776L2.375 9.99678Z" fill="#3E68FF"/>
</svg>
