<svg width="17" height="16" viewBox="0 0 17 16" fill="none" xmlns="http://www.w3.org/2000/svg">
    <path d="M12.7471 15.3H4.3317V5.87862L9.6395 0.699997L10.3163 1.3642C10.3994 1.44573 10.4684 1.55368 10.5233 1.68806C10.5781 1.82245 10.6055 1.94905 10.6055 2.06786V2.26709L9.7563 5.87862H15.1163C15.4968 5.87862 15.833 6.02183 16.1247 6.30827C16.4166 6.59458 16.5625 6.92446 16.5625 7.29791V8.56607C16.5625 8.64759 16.5517 8.73565 16.5301 8.83026C16.5086 8.92486 16.4846 9.01299 16.4579 9.09464L14.1655 14.4032C14.0507 14.6548 13.8584 14.8672 13.5887 15.0403C13.319 15.2134 13.0384 15.3 12.7471 15.3ZM5.5317 14.1223H12.7471C12.8035 14.1223 12.8612 14.1072 12.9201 14.077C12.9792 14.0468 13.0241 13.9964 13.0549 13.926L15.3625 8.62652V7.29791C15.3625 7.22738 15.3394 7.16948 15.2933 7.1242C15.2472 7.07893 15.1882 7.05629 15.1163 7.05629H8.2395L9.2425 2.75327L5.5317 6.37991V14.1223ZM4.3317 5.87862V7.05629H1.7625V14.1223H4.3317V15.3H0.5625V5.87862H4.3317Z" fill="#3E68FF"/>
</svg>
